<svg width="50" height="51" viewBox="0 0 50 51" fill="none" xmlns="http://www.w3.org/2000/svg">
<rect y="0.149902" width="50" height="50" rx="14" fill="white"/>
<path d="M34 35.8999H16C15.59 35.8999 15.25 35.5599 15.25 35.1499C15.25 34.7399 15.59 34.3999 16 34.3999H34C34.41 34.3999 34.75 34.7399 34.75 35.1499C34.75 35.5599 34.41 35.8999 34 35.8999Z" fill="#FB4D17"/>
<path d="M18.6 21.5288H17C16.45 21.5288 16 21.9788 16 22.5288V31.1488C16 31.6988 16.45 32.1488 17 32.1488H18.6C19.15 32.1488 19.6 31.6988 19.6 31.1488V22.5288C19.6 21.9688 19.15 21.5288 18.6 21.5288Z" fill="#FB4D17"/>
<path d="M25.8002 18.3413H24.2002C23.6502 18.3413 23.2002 18.7913 23.2002 19.3413V31.1513C23.2002 31.7013 23.6502 32.1513 24.2002 32.1513H25.8002C26.3502 32.1513 26.8002 31.7013 26.8002 31.1513V19.3413C26.8002 18.7913 26.3502 18.3413 25.8002 18.3413Z" fill="#FB4D17"/>
<path d="M31.4004 15.8999H33.0004C33.1362 15.8999 33.2504 16.0141 33.2504 16.1499V31.1499C33.2504 31.2857 33.1362 31.3999 33.0004 31.3999H31.4004C31.2646 31.3999 31.1504 31.2857 31.1504 31.1499V16.1499C31.1504 16.0141 31.2646 15.8999 31.4004 15.8999Z" fill="#FB4D17" stroke="#FB4D17" stroke-width="1.5"/>
</svg>
