<svg width="50" height="51" viewBox="0 0 50 51" fill="none" xmlns="http://www.w3.org/2000/svg">
<rect y="0.149902" width="50" height="50" rx="14" fill="white"/>
<path d="M34 35.1499H16C15.59 35.1499 15.25 34.8099 15.25 34.3999C15.25 33.9899 15.59 33.6499 16 33.6499H34C34.41 33.6499 34.75 33.9899 34.75 34.3999C34.75 34.8099 34.41 35.1499 34 35.1499Z" fill="#FB4D17"/>
<path d="M32.0196 16.6315C30.0796 14.6915 28.1796 14.6415 26.1896 16.6315L24.9796 17.8415C24.8796 17.9415 24.8396 18.1015 24.8796 18.2415C25.6396 20.8915 27.7596 23.0115 30.4096 23.7715C30.4496 23.7815 30.4896 23.7915 30.5296 23.7915C30.6396 23.7915 30.7396 23.7515 30.8196 23.6715L32.0196 22.4615C33.0096 21.4815 33.4896 20.5315 33.4896 19.5715C33.4996 18.5815 33.0196 17.6215 32.0196 16.6315Z" fill="#FB4D17"/>
<path d="M28.6103 24.6808C28.3203 24.5408 28.0403 24.4008 27.7703 24.2408C27.5503 24.1108 27.3403 23.9708 27.1303 23.8208C26.9603 23.7108 26.7603 23.5508 26.5703 23.3908C26.5503 23.3808 26.4803 23.3208 26.4003 23.2408C26.0703 22.9608 25.7003 22.6008 25.3703 22.2008C25.3403 22.1808 25.2903 22.1108 25.2203 22.0208C25.1203 21.9008 24.9503 21.7008 24.8003 21.4708C24.6803 21.3208 24.5403 21.1008 24.4103 20.8808C24.2503 20.6108 24.1103 20.3408 23.9703 20.0608C23.9491 20.0154 23.9286 19.9702 23.9088 19.9253C23.7612 19.592 23.3265 19.4945 23.0688 19.7523L17.3403 25.4808C17.2103 25.6108 17.0903 25.8608 17.0603 26.0308L16.5203 29.8608C16.4203 30.5408 16.6103 31.1808 17.0303 31.6108C17.3903 31.9608 17.8903 32.1508 18.4303 32.1508C18.5503 32.1508 18.6703 32.1408 18.7903 32.1208L22.6303 31.5808C22.8103 31.5508 23.0603 31.4308 23.1803 31.3008L28.9016 25.5795C29.1612 25.3199 29.0633 24.8745 28.7257 24.7304C28.6877 24.7142 28.6492 24.6976 28.6103 24.6808Z" fill="#FB4D17"/>
</svg>
