<svg width="50" height="51" viewBox="0 0 50 51" fill="none" xmlns="http://www.w3.org/2000/svg">
<rect y="0.350098" width="50" height="50" rx="14" fill="white"/>
<path d="M29.24 15.3501H20.76C18 15.3501 17 16.3501 17 19.1601V31.5401C17 34.3501 18 35.3501 20.76 35.3501H29.23C32 35.3501 33 34.3501 33 31.5401V19.1601C33 16.3501 32 15.3501 29.24 15.3501ZM25 32.6501C24.04 32.6501 23.25 31.8601 23.25 30.9001C23.25 29.9401 24.04 29.1501 25 29.1501C25.96 29.1501 26.75 29.9401 26.75 30.9001C26.75 31.8601 25.96 32.6501 25 32.6501ZM27 19.6001H23C22.59 19.6001 22.25 19.2601 22.25 18.8501C22.25 18.4401 22.59 18.1001 23 18.1001H27C27.41 18.1001 27.75 18.4401 27.75 18.8501C27.75 19.2601 27.41 19.6001 27 19.6001Z" fill="#FB4D17"/>
</svg>
