<svg width="50" height="51" viewBox="0 0 50 51" fill="none" xmlns="http://www.w3.org/2000/svg">
<rect y="0.350098" width="50" height="50" rx="14" fill="white"/>
<path d="M31.5398 17.5207L26.0398 15.4607C25.4698 15.2507 24.5398 15.2507 23.9698 15.4607L18.4698 17.5207C17.4098 17.9207 16.5498 19.1607 16.5498 20.2907V28.3907C16.5498 29.2007 17.0798 30.2707 17.7298 30.7507L23.2298 34.8607C24.1998 35.5907 25.7898 35.5907 26.7598 34.8607L32.2598 30.7507C32.9098 30.2607 33.4398 29.2007 33.4398 28.3907V20.2907C33.4498 19.1607 32.5898 17.9207 31.5398 17.5207ZM25.7498 26.2207V28.8507C25.7498 29.2607 25.4098 29.6007 24.9998 29.6007C24.5898 29.6007 24.2498 29.2607 24.2498 28.8507V26.2207C23.2398 25.9007 22.4998 24.9607 22.4998 23.8507C22.4998 22.4707 23.6198 21.3507 24.9998 21.3507C26.3798 21.3507 27.4998 22.4707 27.4998 23.8507C27.4998 24.9707 26.7598 25.9007 25.7498 26.2207Z" fill="#FB4D17"/>
</svg>
